HIERARCHY
ROOT hip
{
  OFFSET 0 0 0
  CHANNELS 6 Xposition Yposition Zposition Zrotation Yrotation Xrotation
  JOINT abdomen
  {
    OFFSET 0 20.6881 -0.73152
    CHANNELS 3 Zrotation Xrotation Yrotation
    JOINT chest
    {
      OFFSET 0 11.7043 -0.48768
      CHANNELS 3 Zrotation Xrotation Yrotation
      JOINT neck
      {
        OFFSET 0 22.1894 -2.19456
        CHANNELS 3 Zrotation Xrotation Yrotation
        JOINT head
        {
          OFFSET -0.24384 7.07133 1.2192
          CHANNELS 3 Zrotation Xrotation Yrotation
          JOINT leftEye
          {
            OFFSET 4.14528 8.04674 8.04672
            CHANNELS 3 Zrotation Xrotation Yrotation
            End Site
            {
              OFFSET 1 0 0
            }
          }
          JOINT rightEye
          {
            OFFSET -3.6576 8.04674 8.04672
            CHANNELS 3 Zrotation Xrotation Yrotation
            End Site
            {
              OFFSET 1 0 0
            }
          }
        }
      }
      JOINT rCollar
      {
        OFFSET -2.68224 19.2634 -4.8768
        CHANNELS 3 Zrotation Xrotation Yrotation
        JOINT rShldr
        {
          OFFSET -8.77824 -1.95073 1.46304
          CHANNELS 3 Zrotation Xrotation Yrotation
          JOINT rForeArm
          {
            OFFSET -28.1742 -1.7115 0.48768
            CHANNELS 3 Zrotation Xrotation Yrotation
            JOINT rHand
            {
              OFFSET -22.5879 0.773209 7.07136
              CHANNELS 3 Zrotation Xrotation Yrotation
              JOINT rThumb1
              {
                OFFSET -1.2192 -0.487915 3.41376
                CHANNELS 3 Zrotation Xrotation Yrotation
                JOINT rThumb2
                {
                  OFFSET -3.37035 -0.52449 3.41376
                  CHANNELS 3 Zrotation Xrotation Yrotation
                  End Site
                  {
                    OFFSET -1.78271 -1.18214 1.43049
                  }
                }
              }
              JOINT rIndex1
              {
                OFFSET -7.75947 0.938293 5.60832
                CHANNELS 3 Zrotation Xrotation Yrotation
                JOINT rIndex2
                {
                  OFFSET -2.54057 -0.884171 1.56538
                  CHANNELS 3 Zrotation Xrotation Yrotation
                  End Site
                  {
                    OFFSET -1.62519 -0.234802 1.16502
                  }
                }
              }
              JOINT rMid1
              {
                OFFSET -8.24714 1.18213 3.41376
                CHANNELS 3 Zrotation Xrotation Yrotation
                JOINT rMid2
                {
                  OFFSET -3.10165 -0.590103 1.0647
                  CHANNELS 3 Zrotation Xrotation Yrotation
                  End Site
                  {
                    OFFSET -2.48547 -0.328903 0.83742
                  }
                }
              }
              JOINT rRing1
              {
                OFFSET -8.82822 0.546677 1.51678
                CHANNELS 3 Zrotation Xrotation Yrotation
                JOINT rRing2
                {
                  OFFSET -2.60934 -0.819778 -0.0198488
                  CHANNELS 3 Zrotation Xrotation Yrotation
                  End Site
                  {
                    OFFSET -2.33842 -0.294052 0.168128
                  }
                }
              }
              JOINT rPinky1
              {
                OFFSET -8.27202 -0.0477905 -0.4584
                CHANNELS 3 Zrotation Xrotation Yrotation
                JOINT rPinky2
                {
                  OFFSET -1.82734 -0.647385 -0.700984
                  CHANNELS 3 Zrotation Xrotation Yrotation
                  End Site
                  {
                    OFFSET -1.69225 -0.51767 -0.607171
                  }
                }
              }
            }
          }
        }
      }
      JOINT lCollar
      {
        OFFSET 2.68224 19.2634 -4.8768
        CHANNELS 3 Zrotation Xrotation Yrotation
        JOINT lShldr
        {
          OFFSET 8.77824 -1.95073 1.46304
          CHANNELS 3 Zrotation Xrotation Yrotation
          JOINT lForeArm
          {
            OFFSET 28.1742 -1.7115 0.48768
            CHANNELS 3 Zrotation Xrotation Yrotation
            JOINT lHand
            {
              OFFSET 22.5879 0.773209 7.07136
              CHANNELS 3 Zrotation Xrotation Yrotation
              JOINT lThumb1
              {
                OFFSET 1.2192 -0.487915 3.41376
                CHANNELS 3 Zrotation Xrotation Yrotation
                JOINT lThumb2
                {
                  OFFSET 3.37035 -0.52449 3.41376
                  CHANNELS 3 Zrotation Xrotation Yrotation
                  End Site
                  {
                    OFFSET 1.78271 -1.18214 1.43049
                  }
                }
              }
              JOINT lIndex1
              {
                OFFSET 7.75947 0.938293 5.60832
                CHANNELS 3 Zrotation Xrotation Yrotation
                JOINT lIndex2
                {
                  OFFSET 2.54057 -0.884171 1.56538
                  CHANNELS 3 Zrotation Xrotation Yrotation
                  End Site
                  {
                    OFFSET 1.62519 -0.234802 1.16502
                  }
                }
              }
              JOINT lMid1
              {
                OFFSET 8.24714 1.18213 3.41376
                CHANNELS 3 Zrotation Xrotation Yrotation
                JOINT lMid2
                {
                  OFFSET 3.10165 -0.590103 1.0647
                  CHANNELS 3 Zrotation Xrotation Yrotation
                  End Site
                  {
                    OFFSET 2.48547 -0.328903 0.83742
                  }
                }
              }
              JOINT lRing1
              {
                OFFSET 8.82822 0.546677 1.51678
                CHANNELS 3 Zrotation Xrotation Yrotation
                JOINT lRing2
                {
                  OFFSET 2.60934 -0.819778 -0.0198488
                  CHANNELS 3 Zrotation Xrotation Yrotation
                  End Site
                  {
                    OFFSET 2.33842 -0.294052 0.168128
                  }
                }
              }
              JOINT lPinky1
              {
                OFFSET 8.27202 -0.0477905 -0.4584
                CHANNELS 3 Zrotation Xrotation Yrotation
                JOINT lPinky2
                {
                  OFFSET 1.82734 -0.647385 -0.700984
                  CHANNELS 3 Zrotation Xrotation Yrotation
                  End Site
                  {
                    OFFSET 1.69225 -0.51767 -0.607171
                  }
                }
              }
            }
          }
        }
      }
    }
  }
  JOINT rButtock
  {
    OFFSET -8.77824 4.35084 1.2192
    CHANNELS 3 Zrotation Xrotation Yrotation
    JOINT rThigh
    {
      OFFSET 0 -1.70687 -2.19456
      CHANNELS 3 Zrotation Xrotation Yrotation
      JOINT rShin
      {
        OFFSET 0 -36.8199 0.73152
        CHANNELS 3 Zrotation Xrotation Yrotation
        JOINT rFoot
        {
          OFFSET 0.73152 -45.1104 -5.12064
          CHANNELS 3 Zrotation Xrotation Yrotation
          End Site
          {
            OFFSET -1.1221 -3.69964 12.103
          }
        }
      }
    }
  }
  JOINT lButtock
  {
    OFFSET 8.77824 4.35084 1.2192
    CHANNELS 3 Zrotation Xrotation Yrotation
    JOINT lThigh
    {
      OFFSET 0 -1.70687 -2.19456
      CHANNELS 3 Zrotation Xrotation Yrotation
      JOINT lShin
      {
        OFFSET 0 -36.8199 0.73152
        CHANNELS 3 Zrotation Xrotation Yrotation
        JOINT lFoot
        {
          OFFSET -0.73152 -45.1104 -5.12064
          CHANNELS 3 Zrotation Xrotation Yrotation
          End Site
          {
            OFFSET 1.1221 -3.69964 12.103
          }
        }
      }
    }
  }
}
MOTION
Frames:	4
Frame Time:	0.03333
2.0812599806049548 53.58710289001465 64.14419963257387 -6.434400198178023 53.55769894260438 -5.8061000610518345 -2.991550072262242 13.163599898670258 -3.597849956628407 7.550379684024528 -10.828200273318341 -0.27363800212035305 -9.306599758326874 20.654500587855022 -15.685399655340053 13.841100022822161 -27.104299447516837 -28.08989915984426 -0.0 0.0 0.0 -0.0 0.0 0.0 -1.9014499625598748e-13 4.346739784501248e-13 2.477949885610163e-13 56.261801570863696 -5.250190110730851 24.386300799391133 -27.852999171124246 -29.79859904676989 66.9273024692841 -0.639472992587006 22.10700007901347 3.272669986329389 -4.2305502045317295e-10 -1.759650027691062e-09 -1.082690034916317e-09 -7.48901008810935e-10 -3.0601599523980726e-09 -1.8578299737991564e-09 -4.230400122107698e-10 -1.759650027691062e-09 -1.0827199520087897e-09 7.730910121524428 5.474879855648998 0.41731399283890674 -4.230560143765109e-10 -1.759650027691062e-09 -1.082690034916317e-09 2.90554006136521 0.9651829962377875 0.10290200252939893 -4.2304801329364034e-10 -1.759650027691062e-09 -1.0826999741496966e-09 10.278599710243157 0.7318009818271524 0.025912300303053633 -4.230589961465248e-10 -1.759650027691062e-09 -1.082690034916317e-09 2.221669932038622 -0.7334870246959406 -0.20891999872313852 -1.903600025483696e-13 4.3467601676947026e-13 2.4749700568528105e-13 -82.43560214963489 78.20249678887112 5.236160048401998 27.79950000690283 -41.362399594641204 -86.39970050993773 30.460198490534005 -77.06999678296964 37.74569831590356 -3.5946599192200526e-10 5.196800132559667e-09 -3.531820110101037e-10 -5.926679883794277e-10 9.035740367458183e-09 -6.152399873844391e-10 -3.594689985401026e-10 5.196790193326288e-09 -3.531740099272332e-10 -7.730910121524428 5.474879855648998 -0.41731399283890674 -3.5947299908153786e-10 5.196769917290194e-09 -3.531809922386823e-10 -2.90554006136521 0.9651829962377875 -0.10290200252939893 -3.5947901231773254e-10 5.196779856523573e-09 -3.531790043920064e-10 -10.278599710243157 0.7318009818271524 -0.025912300303053633 -3.5946499799866733e-10 5.196790193326288e-09 -3.531849927801176e-10 -2.221669932038622 -0.7334870246959406 0.20891999872313852 -2.0321699793705798e-16 0.0 -3.882510030490358e-19 -54.048000657079164 -41.70629961935134 -61.1749991125694 -1.7850700463045384 67.05379757271274 1.817230098733249 0.19732899427885497 2.8223099374603735 7.355300089818855 2.0321699793705798e-16 0.0 3.882510030490358e-19 36.7868012281363 -27.521000751042852 31.36570057446469 4.430660044769939 82.03290102636011 -7.567719826779898 10.12909967591627 -27.403200478427642 22.294200196237888
2.082749980581866 53.60209941864014 64.26359963370487 -6.511399908899338 53.683900347898714 -5.743199995211541 -2.960349981577035 13.086399978028895 -3.729860010925005 7.516209955154246 -10.821100291676112 -0.3140869960349768 -9.283570067992882 20.68829977896283 -15.717400799148855 13.92619991101229 -27.127600637870337 -28.13320085163485 -0.0 0.0 0.0 -0.0 0.0 0.0 -7.234509789874457e-14 9.950029799034932e-14 -4.0835398577673267e-13 56.24880030577858 -5.270399786711272 24.357800127531963 -27.843800613859532 -29.75080138295814 66.85100242606589 -0.6300019748074313 21.95280002076397 3.2474100257879774 -2.3287599954180577e-09 -1.0977400220996671e-09 4.089179916126701e-09 -3.962430041238358e-09 -1.7334800262026448e-09 7.09788962572008e-09 -2.328750056184678e-09 -1.0977299834739539e-09 4.089160037659942e-09 7.730910121524428 5.474879855648998 0.41731399283890674 -2.3287599954180577e-09 -1.0977299834739539e-09 4.089179916126701e-09 2.90554006136521 0.9651829962377875 0.10290200252939893 -2.328750056184678e-09 -1.0977299834739539e-09 4.089179916126701e-09 10.278599710243157 0.7318009818271524 0.025912300303053633 -2.3287599954180577e-09 -1.0977299834739539e-09 4.089189855360081e-09 2.221669932038622 -0.7334870246959406 -0.20891999872313852 -7.238110214075371e-14 9.95018024641519e-14 -4.0878902136274095e-13 -82.0975009555301 78.32850011867951 4.851229796687121 27.808099215067877 -41.32570098823072 -86.331897222047 30.437798885150947 -77.06350127306895 37.72270106896813 -9.28817010906539e-11 -2.7831599587325894e-08 2.0851100259205284e-09 -2.8484299799875443e-10 -4.696690112015679e-08 3.5273901937837615e-09 -9.288209865998909e-11 -2.7831599587325894e-08 2.0851199651539078e-09 -7.730910121524428 5.474879855648998 -0.41731399283890674 -9.288350257670395e-11 -2.7831599587325894e-08 2.0851100259205284e-09 -2.90554006136521 0.9651829962377875 -0.10290200252939893 -9.288809947214201e-11 -2.7831599587325894e-08 2.0851199651539078e-09 -10.278599710243157 0.7318009818271524 -0.025912300303053633 -9.288240304901133e-11 -2.7831599587325894e-08 2.0851100259205284e-09 -2.221669932038622 -0.7334870246959406 0.20891999872313852 -2.0321699793705798e-16 0.0 -3.882510030490358e-19 -54.10840001990959 -41.67929988156229 -61.36289761663645 -1.797970032490871 67.1693985244152 1.833139957187736 0.21683700172418988 2.665329992218678 7.27437003211702 2.0321699793705798e-16 0.0 3.882510030490358e-19 37.05749870041683 -27.480099870745523 31.55840070151826 4.347440166148857 81.89460335604569 -7.472139867082032 9.972299876913935 -27.39349990225893 22.028599752625478
2.0843199805312906 53.618597984313965 64.3686996307224 -6.565900122720985 53.81389933837156 -5.669900112586257 -2.9810100231558545 13.042900210752377 -3.8476000924981544 7.51010035094167 -10.815800064880182 -0.3495940012395526 -9.264640198708191 20.734400140765832 -15.746799640883882 14.048899990583337 -27.180799273768272 -28.162399910336656 -0.0 0.0 0.0 -0.0 0.0 0.0 3.8319398941992996e-15 -1.0169400278729823e-13 -4.685909814495505e-13 56.23999960703302 -5.316069846596562 24.337500805318683 -27.836299358603565 -29.712699172673226 66.79099921420733 -0.6208099809276221 21.80179990614062 3.222719959155439 -2.1141099259367773e-09 6.731540242569134e-11 4.806239944756003e-09 -3.5801699084453077e-09 2.961459935903392e-10 8.331769911620444e-09 -2.1141099259367773e-09 6.73162969566955e-11 4.8062200662892434e-09 7.730910121524428 5.474879855648998 0.41731399283890674 -2.1141099259367773e-09 6.731819783507934e-11 4.806239944756003e-09 2.90554006136521 0.9651829962377875 0.10290200252939893 -2.114099986703398e-09 6.731880040110298e-11 4.806239944756003e-09 10.278599710243157 0.7318009818271524 0.025912300303053633 -2.1141200639548245e-09 6.732150263017806e-11 4.806249883989383e-09 2.221669932038622 -0.7334870246959406 -0.20891999872313852 3.856839921426196e-15 -1.0169200086651255e-13 -4.689650130494352e-13 -81.74179836393417 78.43500325840752 4.46578984210543 27.815199196710104 -41.295299816234994 -86.2758008783937 30.414501109892033 -77.05669840465562 37.69879882196767 2.2137999894683973e-10 -3.2213398883103276e-08 2.3718300729910985e-09 2.3618900941690216e-10 -5.463619806800722e-08 4.029069818063052e-09 2.2137999894683973e-10 -3.2213398883103276e-08 2.3718400122244783e-09 -7.730910121524428 5.474879855648998 -0.41731399283890674 2.2137999894683973e-10 -3.2213398883103276e-08 2.3718300729910985e-09 -2.90554006136521 0.9651829962377875 -0.10290200252939893 2.2137599840540447e-10 -3.2213398883103276e-08 2.3718400122244783e-09 -10.278599710243157 0.7318009818271524 -0.025912300303053633 2.213809928701777e-10 -3.2213398883103276e-08 2.3718300729910985e-09 -2.221669932038622 -0.7334870246959406 0.20891999872313852 -2.0321699793705798e-16 0.0 -3.882510030490358e-19 -54.158899023538076 -41.675198352965694 -61.48739830482745 -1.8091000391868182 67.27379796587886 1.8490099017242605 0.23292100332208565 2.524450083511172 7.1636902317115485 2.0321699793705798e-16 0.0 3.882510030490358e-19 37.31009958649141 -27.439499518771676 31.76689905612207 4.272779795218271 81.7634978749273 -7.38379990790438 9.809280336898656 -27.389299335919375 21.746799807849094
2.0890099805910722 53.63460183143616 64.45899963146076 -6.583899805618084 53.93289830918611 -5.584699905992695 -3.053259977639661 13.033099743067055 -3.951129965503092 7.532060262896907 -10.81219970141394 -0.38016000490985874 -9.249789659905291 20.792799965716732 -15.773700340929977 14.208999624728436 -27.26399951559549 -28.177499751044262 -0.0 0.0 0.0 -0.0 0.0 0.0 3.83863002530978e-14 -1.6890899667993733e-13 6.708599739692177e-14 56.235300436884046 -5.387199863499898 24.325399417656715 -27.830500527998225 -29.684401698941862 66.74729966389759 -0.611889006819645 21.653999735143422 3.198620063555872 2.2089098866456474e-10 1.735510015228089e-09 1.0684899515792541e-09 3.978989947060566e-10 3.0287100313537587e-09 1.8438100887632652e-09 2.20894989206e-10 1.7355000759947094e-09 1.0684699737201613e-09 7.730910121524428 5.474879855648998 0.41731399283890674 2.2089098866456474e-10 1.735510015228089e-09 1.0684899515792541e-09 2.90554006136521 0.9651829962377875 0.10290200252939893 2.208989897474353e-10 1.735510015228089e-09 1.0684899515792541e-09 10.278599710243157 0.7318009818271524 0.025912300303053633 2.208859941997915e-10 1.735510015228089e-09 1.0684899515792541e-09 2.221669932038622 -0.7334870246959406 -0.20891999872313852 3.8353699276424326e-14 -1.689050049712192e-13 6.696830265400361e-14 -81.3705024504631 78.52189692502841 4.081730012622906 27.820699206539256 -41.271298531491574 -86.23139781859945 30.390100259082164 -77.04960183810798 37.67380032960542 5.833199902974381e-10 -7.948590200955115e-09 5.069779811131066e-10 9.704279841713753e-10 -1.397220056982934e-08 8.898000284652709e-10 5.833180024507622e-10 -7.94859974261916e-09 5.069919954321718e-10 -7.730910121524428 5.474879855648998 -0.41731399283890674 5.833180024507622e-10 -7.94859974261916e-09 5.069830004259632e-10 -2.90554006136521 0.9651829962377875 -0.10290200252939893 5.833129831379055e-10 -7.94859974261916e-09 5.069779811131066e-10 -10.278599710243157 0.7318009818271524 -0.025912300303053633 5.833260035336327e-10 -7.94859974261916e-09 5.069730114964168e-10 -2.221669932038622 -0.7334870246959406 0.20891999872313852 -2.0321699793705798e-16 0.0 -3.882510030490358e-19 -54.19969915854515 -41.69429897697963 -61.54889732811424 -1.8184300775930557 67.36679782161774 1.8648299005024795 0.24545400024266237 2.3996399023734134 7.023270080112549 2.0321699793705798e-16 0.0 3.882510030490358e-19 37.54460047126546 -27.398999912088087 31.991199053370703 4.20612995552364 81.63970069622081 -7.302129628451245 9.640010320019167 -27.390800269989484 21.44880036190873
